<svg width="36" height="35" viewBox="0 0 36 35" fill="none" xmlns="http://www.w3.org/2000/svg">
<path d="M18.3649 3.16322C23.038 3.16322 23.5914 3.18372 25.4292 3.2657C27.1372 3.34086 28.0595 3.6278 28.6744 3.86692C29.4874 4.18119 30.075 4.56378 30.683 5.17183C31.2979 5.78671 31.6737 6.36743 31.9879 7.18044C32.227 7.79532 32.514 8.72447 32.5891 10.4256C32.6711 12.2703 32.6916 12.8237 32.6916 17.4899C32.6916 22.163 32.6711 22.7164 32.5891 24.5542C32.514 26.2622 32.227 27.1845 31.9879 27.7994C31.6737 28.6124 31.2911 29.2 30.683 29.808C30.0681 30.4229 29.4874 30.7987 28.6744 31.1129C28.0595 31.3521 27.1304 31.639 25.4292 31.7142C23.5846 31.7961 23.0312 31.8166 18.3649 31.8166C13.6918 31.8166 13.1384 31.7961 11.3006 31.7142C9.59263 31.639 8.67031 31.3521 8.05543 31.1129C7.24242 30.7987 6.65487 30.4161 6.04682 29.808C5.43194 29.1931 5.05618 28.6124 4.74191 27.7994C4.50279 27.1845 4.21585 26.2554 4.1407 24.5542C4.05871 22.7096 4.03822 22.1562 4.03822 17.4899C4.03822 12.8168 4.05871 12.2634 4.1407 10.4256C4.21585 8.71764 4.50279 7.79532 4.74191 7.18044C5.05618 6.36743 5.43878 5.77988 6.04682 5.17183C6.6617 4.55695 7.24242 4.18119 8.05543 3.86692C8.67031 3.6278 9.59946 3.34086 11.3006 3.2657C13.1384 3.18372 13.6918 3.16322 18.3649 3.16322ZM18.3649 0.0136719C13.6167 0.0136719 13.0223 0.0341679 11.1572 0.116152C9.29886 0.198136 8.02127 0.498744 6.91449 0.92916C5.75988 1.38007 4.7829 1.97446 3.81276 2.95143C2.83578 3.92158 2.2414 4.89855 1.79049 6.04633C1.36007 7.15994 1.05946 8.4307 0.97748 10.289C0.895496 12.161 0.875 12.7554 0.875 17.5036C0.875 22.2518 0.895496 22.8462 0.97748 24.7114C1.05946 26.5697 1.36007 27.8472 1.79049 28.954C2.2414 30.1086 2.83578 31.0856 3.81276 32.0558C4.7829 33.0259 5.75988 33.6271 6.90766 34.0712C8.02127 34.5016 9.29202 34.8022 11.1503 34.8842C13.0155 34.9662 13.6098 34.9867 18.3581 34.9867C23.1063 34.9867 23.7007 34.9662 25.5658 34.8842C27.4242 34.8022 28.7017 34.5016 29.8085 34.0712C30.9563 33.6271 31.9333 33.0259 32.9034 32.0558C33.8736 31.0856 34.4748 30.1086 34.9189 28.9609C35.3493 27.8472 35.6499 26.5765 35.7319 24.7182C35.8139 22.853 35.8343 22.2587 35.8343 17.5104C35.8343 12.7622 35.8139 12.1678 35.7319 10.3027C35.6499 8.44436 35.3493 7.16678 34.9189 6.05999C34.4884 4.89855 33.8941 3.92158 32.9171 2.95143C31.9469 1.98129 30.97 1.38007 29.8222 0.935992C28.7086 0.505576 27.4378 0.204968 25.5795 0.122984C23.7075 0.0341679 23.1132 0.0136719 18.3649 0.0136719Z" fill="#465658"/>
<path d="M18.3649 8.51953C13.4049 8.51953 9.38086 12.5436 9.38086 17.5036C9.38086 22.4636 13.4049 26.4877 18.3649 26.4877C23.325 26.4877 27.349 22.4636 27.349 17.5036C27.349 12.5436 23.325 8.51953 18.3649 8.51953ZM18.3649 23.3313C15.1471 23.3313 12.5372 20.7215 12.5372 17.5036C12.5372 14.2857 15.1471 11.6759 18.3649 11.6759C21.5828 11.6759 24.1926 14.2857 24.1926 17.5036C24.1926 20.7215 21.5828 23.3313 18.3649 23.3313Z" fill="#465658"/>
<path d="M29.8023 8.16432C29.8023 9.32576 28.8595 10.2617 27.7048 10.2617C26.5434 10.2617 25.6074 9.31893 25.6074 8.16432C25.6074 7.00288 26.5502 6.06689 27.7048 6.06689C28.8595 6.06689 29.8023 7.00971 29.8023 8.16432Z" fill="#465658"/>
</svg>
