<svg width="170" height="31" viewBox="0 0 170 31" fill="none" xmlns="http://www.w3.org/2000/svg">
<g clip-path="url(#clip0_560_6892)">
<path d="M167 25.561C166.877 25.3259 166.706 25.1378 166.478 25.0061C166.26 24.8745 166.013 24.8086 165.729 24.8086C165.263 24.8086 164.903 24.9967 164.637 25.3635C164.371 25.7397 164.238 26.2663 164.238 26.9622V29.7553H170V26.8023C170 26.0594 169.867 25.4951 169.592 25.1002C169.316 24.7146 168.937 24.5171 168.424 24.5171C168.064 24.5171 167.769 24.6111 167.522 24.7898C167.276 24.9779 167.105 25.2318 167 25.5516V25.561ZM165.235 28.4387V27.1221C165.235 26.7929 165.292 26.5484 165.406 26.3791C165.52 26.2099 165.691 26.1252 165.909 26.1252C166.127 26.1252 166.308 26.2099 166.421 26.3791C166.535 26.5484 166.592 26.7929 166.592 27.1221V28.4387H165.235ZM168.813 26.1064C168.927 26.2851 168.984 26.5484 168.984 26.8964V28.4387H167.56V26.8964C167.56 26.1911 167.798 25.8431 168.272 25.8431C168.51 25.8431 168.69 25.9277 168.804 26.1064H168.813Z" fill="#465658"/>
<path d="M164.238 20.5484L170 23.097V21.7427L168.766 21.2349V18.5829L170 18.0751V16.6926L164.238 19.2412V20.5484ZM167.75 20.8117L165.548 19.9089L167.75 19.0061V20.8211V20.8117Z" fill="#465658"/>
<path d="M164.238 13.5327V14.8493H170V10.6738H168.908V13.5327H164.238Z" fill="#465658"/>
<path d="M170 7.43872H164.238V8.75533H170V7.43872Z" fill="#465658"/>
<path d="M67.0418 7.89034C68.3421 7.91856 69.5666 10.1756 64.3271 21.8934C63.7481 23.1818 62.5711 25.7209 62.5711 25.7209L54.5694 7.73047H48.7129L48.7698 7.90915C50.0702 7.90915 50.972 8.80256 52.2724 11.2947C53.0222 12.7242 61.451 30.0563 61.451 30.0563L71.9965 7.73047H66.9563L67.0513 7.88094L67.0418 7.89034Z" fill="#465658"/>
<path d="M124.382 7.73975H118.933L119.028 7.89022C120.594 7.89022 121.487 9.53597 117.984 15.2068C117.244 16.4105 115.231 19.2036 115.231 19.2036L107.847 7.73975H101.99L102.047 7.91843C103.348 7.91843 104.544 8.84946 105.929 11.2946C106.66 12.5736 110.647 18.818 112.023 20.9716C112.023 23.144 112.014 28.3634 112.014 28.655C112.014 29.2944 110.751 29.5954 110.751 29.5954L110.685 29.7647H117.851L117.794 29.586C116.494 29.586 115.867 28.9841 115.886 27.9496C115.915 25.9465 115.924 20.4732 115.924 19.7208L124.382 7.74915V7.73975Z" fill="#465658"/>
<path d="M43.9856 26.2191L35.8416 7.43872H29.7763L29.8332 7.6174C30.9912 7.6174 31.836 8.33213 32.9276 10.2506L23.7109 29.7646H28.7511L28.6562 29.6141C27.3558 29.5859 26.1314 27.3289 31.3709 15.6111C31.874 14.492 33.051 11.7741 33.3547 11.0782C33.8388 12.0656 35.984 17.3321 37.8918 22.0248L32.7377 24.216C35.908 23.238 37.721 23.5201 38.6607 23.9057C39.6194 26.238 40.4452 28.2317 40.8628 29.1815H40.8818L41.0147 29.4919H41.0052L41.1286 29.774H46.9851L46.9281 29.5953C45.6277 29.5953 45.2576 28.7019 43.9667 26.2286L43.9856 26.2191Z" fill="#465658"/>
<path d="M96.7513 26.2191L88.6072 7.43872H82.5419L82.5988 7.6174C83.7568 7.6174 84.6016 8.33213 85.6932 10.2506L76.4766 29.7646H81.5168L81.4218 29.6141C80.1215 29.5859 78.897 27.3289 84.1365 15.6111C84.6396 14.492 85.8166 11.7741 86.1203 11.0782C86.6044 12.0656 88.7496 17.3321 90.667 22.0248H90.6575L85.4939 24.2066C88.6832 23.2286 90.4961 23.5107 91.4358 23.9057C92.3945 26.238 93.2108 28.2223 93.6284 29.1721H93.6474L93.7803 29.4824H93.7708C93.8467 29.6611 93.8942 29.7646 93.8942 29.7646H99.7507L99.6938 29.5859C98.3934 29.5859 98.0232 28.6925 96.7323 26.2191H96.7513Z" fill="#465658"/>
<path d="M152.735 29.7646L152.678 29.5859C151.387 29.5859 151.007 28.6925 149.716 26.2191L141.572 7.43872H135.507L135.564 7.6174C136.722 7.6174 137.566 8.33213 138.658 10.2506L129.441 29.7646H134.482L134.387 29.6141C133.086 29.5859 131.862 27.3289 137.101 15.6111C137.604 14.492 138.781 11.7741 139.085 11.0782C139.569 12.0656 141.714 17.3321 143.622 22.0248L138.468 24.216C141.639 23.238 143.442 23.5201 144.391 23.9057C145.35 26.238 146.176 28.2317 146.593 29.1815H146.612L146.745 29.4919H146.736C146.812 29.6705 146.859 29.774 146.859 29.774H152.716L152.735 29.7646Z" fill="#465658"/>
<path d="M5.48605 14.4825C2.45813 11.3227 4.53686 7.14716 10.2889 8.26628C14.4369 9.07505 13.9718 11.9998 13.9718 11.9998L14.1427 11.981C14.1427 11.981 14.8735 8.51079 14.959 8.17223C15.0444 7.83368 15.1298 7.57976 15.1298 7.57976C14.8735 7.6644 13.9433 7.68321 12.2728 7.51393C10.6022 7.34465 7.65969 6.95908 4.85009 8.3133C0.948917 10.2036 -0.313506 14.5766 2.81882 17.3603C5.55249 19.796 11.6748 19.9558 12.7853 24.4041C14.0383 29.3978 7.48884 31.147 2.4866 27.5075C1.60386 26.868 1.84116 24.5357 1.84116 24.5357L1.67979 24.5734L-0.00976562 29.1251C-0.00976562 29.1251 3.24596 30.8084 8.96008 30.2348C11.9975 29.9338 15.4241 27.8555 15.6804 23.3414C16.0221 17.3508 8.06784 17.1816 5.47655 14.4731L5.48605 14.4825Z" fill="#465658"/>
<path d="M88.6821 2.46393H92.1846L87.021 0L81.8574 2.19121C87.2014 0.545451 88.6726 2.46393 88.6726 2.46393H88.6821Z" fill="#465658"/>
</g>
<defs>
<clipPath id="clip0_560_6892">
<rect width="170" height="30.3571" fill="white"/>
</clipPath>
</defs>
</svg>
