<svg width="253" height="181" viewBox="0 0 253 181" fill="none" xmlns="http://www.w3.org/2000/svg">
<g clip-path="url(#clip0_572_567)">
<path d="M117.171 177.045C117.484 176.872 117.745 176.648 117.919 176.354C118.093 176.061 118.18 175.733 118.18 175.37C118.18 174.766 117.936 174.282 117.432 173.937C116.927 173.591 116.213 173.401 115.291 173.401H111.549V180.983H115.5C116.492 180.983 117.258 180.81 117.78 180.447C118.302 180.085 118.563 179.584 118.563 178.91C118.563 178.444 118.441 178.047 118.198 177.719C117.954 177.391 117.606 177.166 117.171 177.028V177.045ZM113.324 174.731H115.082C115.517 174.731 115.848 174.8 116.074 174.956C116.3 175.111 116.405 175.318 116.405 175.629C116.405 175.94 116.3 176.147 116.074 176.303C115.848 176.458 115.517 176.527 115.082 176.527H113.324V174.731ZM116.44 179.446C116.196 179.601 115.848 179.67 115.378 179.67H113.307V177.788H115.378C116.318 177.788 116.788 178.099 116.788 178.738C116.788 179.048 116.666 179.29 116.44 179.446Z" fill="#435C63"/>
<path d="M123.89 173.419L120.479 181H122.289L122.967 179.377H126.518L127.197 181H129.059L125.648 173.419H123.907H123.89ZM123.542 178.047L124.76 175.146L125.979 178.047H123.559H123.542Z" fill="#435C63"/>
<path d="M133.287 173.419H131.512V181H137.116V179.567H133.287V173.419Z" fill="#435C63"/>
<path d="M141.451 173.419H139.676V181H141.451V173.419Z" fill="#435C63"/>
<path d="M111.044 119.159C113.202 119.21 115.221 122.958 106.536 142.386C105.578 144.527 103.629 148.741 103.629 148.741L90.3663 118.9H80.6543L80.7587 119.193C82.917 119.193 84.4138 120.678 86.5546 124.806C87.7904 127.172 101.767 155.925 101.767 155.925L119.224 118.882H110.869L111.026 119.124L111.044 119.159Z" fill="#435C63"/>
<path d="M206.041 118.917H197.026L197.182 119.158C199.776 119.158 201.255 121.887 195.442 131.282C194.206 133.268 190.882 137.913 190.882 137.913L178.663 118.899H168.951L169.056 119.193C171.214 119.193 173.198 120.747 175.495 124.788C176.714 126.912 183.31 137.274 185.59 140.849C185.59 144.458 185.59 153.11 185.59 153.594C185.59 154.647 183.502 155.148 183.502 155.148L183.38 155.424H195.25L195.146 155.131C192.988 155.131 191.961 154.129 191.978 152.419C192.03 149.086 192.03 140.02 192.03 138.776L206.041 118.917Z" fill="#435C63"/>
<path d="M72.8577 149.57L59.3688 118.416H49.3261L49.4305 118.71C51.3451 118.71 52.7549 119.901 54.565 123.079L39.3008 155.441H47.6552L47.4986 155.2C45.3403 155.148 43.3213 151.4 52.0065 131.972C52.8419 130.125 54.7913 125.6 55.296 124.443C56.0967 126.084 59.6473 134.822 62.815 142.593L54.2691 146.22C59.5255 144.596 62.5191 145.063 64.0856 145.702C65.6695 149.57 67.027 152.886 67.7232 154.457H67.7407L67.9669 154.975L68.1758 155.441H77.8878L77.7834 155.148C75.6426 155.148 75.016 153.663 72.8751 149.57H72.8577Z" fill="#435C63"/>
<path d="M160.266 149.57L146.777 118.416H136.734L136.839 118.71C138.753 118.71 140.163 119.901 141.973 123.079L126.709 155.441H135.063L134.907 155.2C132.749 155.148 130.73 151.4 139.415 131.972C140.25 130.125 142.199 125.6 142.704 124.443C143.505 126.084 147.055 134.822 150.223 142.61H150.206L141.66 146.237C146.951 144.614 149.945 145.08 151.511 145.736C153.095 149.604 154.453 152.903 155.149 154.474H155.166L155.393 154.992C155.532 155.286 155.601 155.459 155.601 155.459H165.313L165.209 155.165C163.068 155.165 162.442 153.68 160.301 149.587L160.266 149.57Z" fill="#435C63"/>
<path d="M252.999 155.459L252.895 155.165C250.754 155.165 250.127 153.68 247.986 149.587L234.498 118.433H224.437L224.542 118.727C226.456 118.727 227.866 119.918 229.676 123.096L214.412 155.459H222.767L222.61 155.217C220.452 155.165 218.433 151.418 227.118 131.99C227.953 130.142 229.903 125.617 230.407 124.46C231.208 126.101 234.759 134.839 237.926 142.61L229.38 146.237C234.637 144.613 237.63 145.08 239.197 145.719C240.781 149.587 242.138 152.903 242.835 154.474H242.852L243.078 154.992C243.217 155.286 243.287 155.459 243.287 155.459H252.999Z" fill="#435C63"/>
<path d="M9.08527 130.107C4.07261 124.857 7.51882 117.932 17.0394 119.797C23.897 121.144 23.1486 125.997 23.1486 125.997L23.427 125.963C23.427 125.963 24.6454 120.212 24.7846 119.642C24.9239 119.072 25.0631 118.658 25.0631 118.658C24.6454 118.796 23.0963 118.83 20.3289 118.554C17.5615 118.278 12.6881 117.639 8.02356 119.884C1.56628 122.992 -0.53973 130.245 4.64698 134.874C9.17229 138.915 19.302 139.191 21.1644 146.565C23.2356 154.854 12.3922 157.738 4.10742 151.711C2.6454 150.658 3.04571 146.772 3.04571 146.772L2.78464 146.841L-0.0175781 154.388C-0.0175781 154.388 5.36059 157.185 14.8289 156.236C19.859 155.735 25.5505 152.298 25.9682 144.803C26.5425 134.874 13.3669 134.58 9.06787 130.09L9.08527 130.107Z" fill="#435C63"/>
<path d="M146.899 110.161H152.695L144.149 106.068L135.604 109.712C144.463 106.984 146.899 110.161 146.899 110.161Z" fill="#435C63"/>
<path d="M164.008 72.0307C162.737 71.9616 162.355 72.3415 162.529 71.9616C162.529 71.9616 161.606 72.2379 162.059 71.8925C161.711 71.7544 161.154 71.9443 160.962 71.8234C161.258 71.7198 162.946 71.7371 164.008 71.7026V71.2536C163.434 71.2017 162.476 71.3399 161.658 71.3399C160.457 71.3399 159.117 71.0291 159.117 70.9082C160.405 70.9082 162.459 71.0463 163.991 70.9945V70.5628C163.312 70.3901 162.72 70.6837 162.546 70.2001C156.593 70.2347 147.09 70.2865 139.484 70.062C139.502 69.9411 140.128 69.9238 140.041 69.613C129.093 69.6475 118.65 69.8547 109.199 69.5784C109.252 69.233 114.961 69.6302 114.874 69.2503C109.426 69.1985 103.09 69.0085 98.8086 69.3712C98.7564 69.6475 100.114 69.6648 100.201 69.7857C96.3545 69.6648 93.3086 69.5784 89.6014 70.0102C89.6362 70.3728 89.3751 70.3383 88.9922 70.5801V71.0291C89.8276 71.0636 90.4368 70.8564 91.0112 71.0809C90.0017 71.1327 90.0539 71.3399 88.9922 71.3226V74.3966H163.991V72.0134L164.008 72.0307Z" fill="#435C63"/>
<path d="M89.6536 37.9235L90.9764 38.0272C91.1156 38.3035 91.2548 38.5625 91.4811 38.787C92.508 39.0115 95.6757 38.9597 96.9985 38.977C104.1 39.0633 111.097 39.0288 118.111 38.787C120.112 38.7179 122.114 38.7352 124.116 38.6489C126.866 38.528 152.921 38.1135 155.166 38.1826C156.019 38.1999 156.611 38.5107 157.411 38.5971C158.786 38.7525 161.989 38.5971 163.991 38.528V37.6645C163.608 37.699 162.877 37.7336 162.476 37.7336C162.459 37.3191 161.362 37.699 161.171 37.3709C161.763 37.3364 162.302 37.2673 162.999 37.181L162.755 36.8356C163.086 36.9047 163.764 36.9047 163.991 36.8356V34.9187C163.312 34.6942 161.937 34.7633 161.711 34.2797C162.059 34.0898 163.434 34.556 163.991 34.1588V30.1005C163.573 29.9797 162.79 29.8415 162.755 29.7033C162.633 29.5307 163.851 29.5652 163.991 29.3752V27.7346C160.196 27.0611 155.149 27.0611 151.059 26.9575C150.972 26.6639 153.513 26.6121 157.586 26.8366C159.605 26.9575 161.902 27.2511 163.991 27.3374V26.4049L162.442 26.1286C160.666 26.0941 156.106 25.9732 154.418 25.835C154.348 25.3515 159.639 26.1286 159.552 25.7314L157.864 25.4551C158.055 25.4205 158.56 25.2651 158.699 25.196C152.764 23.9527 121.731 25.2306 114.491 24.9197C111.949 24.8161 109.374 24.747 106.798 24.7125C104.448 24.678 100.114 24.5916 97.8166 24.7643C97.3292 24.7988 96.9463 24.9715 96.4764 25.0234C95.2928 25.1615 95.4495 24.7125 94.4052 24.9888C93.6393 25.7487 91.6203 25.6623 90.9416 25.6623C90.2976 25.6796 90.7501 25.9732 90.5238 26.0595C90.0713 26.0768 89.4621 26.0077 89.4447 26.2667C90.315 26.5258 89.3751 26.8539 88.9922 27.1993V37.3709C89.2533 37.5264 89.6014 37.7336 89.6536 37.9581V37.9235ZM120.025 25.4205C120.234 25.4205 120.269 25.4724 120.147 25.4896C119.033 25.6105 117.084 25.5414 115.953 25.5932C111.166 25.8177 100.584 26.1631 100.584 25.6969C105.701 25.2997 113.968 25.4551 120.025 25.4205Z" fill="#435C63"/>
<path d="M120.06 58.0597C120.043 57.8007 118.355 57.818 117.954 57.7144C119.973 57.6107 123.994 57.8698 123.924 58.1634C122.845 58.1288 121.627 58.0597 120.565 58.0425C120.408 58.0252 120.374 58.1634 120.008 58.1634C118.268 58.1288 118.094 58.2497 115.344 58.2842C115.291 58.4569 115.883 58.5605 116.109 58.6124C116.597 58.716 117.45 58.5605 117.989 58.5778C120.583 58.6642 123.298 58.6642 125.839 58.6469C126.848 58.6469 127.771 58.6469 128.798 58.6469H160.109C161.537 58.5951 162.842 58.0252 164.008 58.0252V56.1083C163.765 56.0738 162.598 56.3846 162.633 55.8493C161.972 55.8493 161.78 55.6248 161.049 55.5902C161.589 55.2448 163.73 55.7802 164.008 55.5557V53.8288C163.382 53.7597 162.964 53.7769 162.372 54.036C162.337 53.9842 162.529 53.8288 162.668 53.8115C162.668 53.7079 161.833 53.8633 161.746 53.6215C162.181 53.4834 163.26 53.3107 163.608 53.5697C163.643 53.5352 163.834 53.4488 164.008 53.3625V48.8034C164.008 48.8034 163.886 48.8034 163.852 48.8034C163.799 48.7516 163.817 48.6825 163.712 48.6479C163.521 48.6134 163.416 48.5616 163.225 48.5271V48.3544C163.312 48.1989 163.66 48.3544 164.008 48.1817V47.4391C162.024 47.3873 158.247 47.56 158.073 47.7499C157.864 47.9917 157.325 48.0263 157.046 48.0435C154.696 48.2162 141.991 48.268 137.274 48.2853C137.065 48.1817 137.083 48.009 136.543 48.0263C130.939 48.2853 124.882 48.2853 118.999 48.3889C117.711 48.4062 113.22 48.3716 112.715 48.1989C115.17 47.9054 117.624 48.2853 118.894 48.1817C121.261 47.9744 123.663 47.9744 126.065 47.9226C128.467 47.8881 130.852 47.819 133.219 47.819C135.586 47.819 137.918 47.8536 140.181 47.6981C140.268 47.6981 140.39 47.56 140.72 47.56C140.842 47.3873 140.215 47.4736 140.007 47.4564C137.779 47.4391 135.116 47.4909 132.662 47.5254C131.757 47.5254 130.799 47.6809 129.877 47.6118C129.581 47.5945 129.32 47.5082 128.885 47.4909C128.554 47.4909 128.223 47.4391 127.893 47.4046C127.196 47.3355 126.483 47.4046 125.734 47.4391C122.967 47.4909 120.06 47.1455 117.189 47.5254C116.214 47.5945 92.2993 48.1644 91.1506 48.3544C90.7677 48.3889 90.2803 48.3889 90.0715 48.458C89.967 48.4925 90.0367 48.5443 89.967 48.6134C89.8974 48.6652 89.793 48.6825 89.7408 48.717C89.706 48.7516 89.5493 49.0451 89.4971 49.097C89.4449 49.1488 88.975 49.2696 89.4275 49.2351C89.6712 49.2351 90.35 49.2006 90.6632 49.1833C90.6632 49.2869 90.2455 49.356 90.1237 49.3733C90.0367 49.6841 89.3579 49.546 89.0098 49.7186V56.8336C89.0098 56.8336 89.1664 56.8336 89.1838 56.8336L89.2882 57.0754C89.2882 57.0754 89.0446 57.179 89.0098 57.2308V57.7316L89.3579 57.818C92.7693 58.4915 116.545 57.8352 120.06 58.0079V58.0597Z" fill="#435C63"/>
<path d="M100.271 18.3055C100.462 18.8063 98.565 18.3228 98.6868 18.7372C102.951 19.3935 109.234 19.1517 114.734 18.789C114.578 18.3746 109.843 18.979 109.06 18.5127C118.529 18.0119 136.003 19.428 139.101 18.9272C139.101 18.5991 137.517 18.8236 138.161 18.5991C138.684 18.4782 139.502 18.4782 140.302 18.4955C140.268 18.2364 139.415 18.1846 139.345 17.9429C147.23 17.5111 156.071 18.0119 161.989 18.081L162.163 18.0292C162.546 17.7183 162.877 17.373 163.747 17.2348C162.285 17.0621 160.631 16.993 158.961 16.9758C159.639 16.5786 160.283 15.9569 161.641 16.0432C162.581 15.9051 163.434 15.7669 164.043 15.6806V15.6115C162.668 15.4906 161.38 15.3697 160.405 15.1279C161.241 15.0761 162.146 15.0934 162.859 14.9553C162.459 14.5408 161.815 14.9553 161.188 14.7998C161.919 14.3681 162.964 14.4544 164.043 14.5062V4.71453C164.043 4.71453 163.921 4.57638 163.799 4.52457C162.79 4.74907 162.233 4.5073 161.536 4.76634L162.076 4.31734L161.067 3.73018C161.275 3.74745 163.103 3.54022 163.103 3.79926C163.486 3.79926 163.712 3.69564 163.851 3.50568C163.886 3.28118 163.016 3.35025 162.685 3.28118C162.772 3.05667 162.302 2.8149 161.937 2.78036C162.32 2.60767 162.842 2.86671 163.329 2.64221C163.573 2.67675 163.625 2.8149 164.043 2.71129V2.22775C163.486 2.24501 162.981 2.19321 162.581 1.86509C163.138 1.77874 163.521 1.55424 164.043 1.60605V0.984353C162.668 1.12251 161.293 1.0707 161.85 0.621696C158.961 0.0690774 157.307 1.5197 154.749 0.742582C154.905 0.53535 156.141 0.345387 155.567 0H90.576C90.5412 0.725312 89.2359 0.431734 88.9922 0.880737V1.67513C90.2105 1.77874 89.6014 2.08959 88.9922 2.40044V2.64221C89.1314 2.64221 89.845 2.71129 89.8102 2.8149C89.7406 2.86671 88.9922 2.86671 88.9922 3.24664V15.5424C90.5238 15.8187 91.2897 15.4733 91.2897 15.4733C91.133 16.3541 89.6884 15.7324 88.9922 15.9914V18.2019C92.508 18.6509 96.5982 18.5127 100.253 18.3055H100.271Z" fill="#435C63"/>
</g>
<defs>
<clipPath id="clip0_572_567">
<rect width="253" height="181" fill="white"/>
</clipPath>
</defs>
</svg>
