<?xml version="1.0" encoding="UTF-8"?><svg id="Layer_2" xmlns="http://www.w3.org/2000/svg" width="17.4" height="20" viewBox="0 0 17.4 20"><defs><style>.cls-1{fill:#465658;}</style></defs><g id="Layer_1-2"><path class="cls-1" d="M16.4,4.7c-2-.4-3.6-2.2-3.8-4.2v-.4h-3.4V13.7c0,1.6-1.3,2.9-2.9,2.9-.9,0-1.7-.4-2.3-1.1h0s0,0,0,0c-1-1.3-.7-3.1,.6-4.1,.8-.6,1.7-.7,2.6-.5v-3.5C3.7,6.9,.5,9.3,0,12.8c-.3,1.9,.4,3.9,1.7,5.3,2.4,2.5,6.5,2.5,9,.1,1.2-1.2,1.9-2.8,1.9-4.5V6.7c1.4,1,3.1,1.5,4.8,1.5v-3.4c-.3,0-.7,0-1-.1Z"/></g></svg>