<svg width="36" height="25" viewBox="0 0 36 25" fill="none" xmlns="http://www.w3.org/2000/svg">
<path d="M34.7759 5.50768C34.7759 5.50768 34.4343 3.09599 33.3822 2.03703C32.05 0.643299 30.5606 0.636467 29.8774 0.554483C24.9857 0.199219 17.6413 0.199219 17.6413 0.199219H17.6276C17.6276 0.199219 10.2832 0.199219 5.39151 0.554483C4.70831 0.636467 3.21893 0.643299 1.88669 2.03703C0.834563 3.09599 0.499795 5.50768 0.499795 5.50768C0.499795 5.50768 0.144531 8.34296 0.144531 11.1714V13.8222C0.144531 16.6507 0.492963 19.486 0.492963 19.486C0.492963 19.486 0.834563 21.8977 1.87986 22.9566C3.2121 24.3503 4.96109 24.3025 5.73994 24.4528C8.54106 24.7193 17.6345 24.8013 17.6345 24.8013C17.6345 24.8013 24.9857 24.7876 29.8774 24.4392C30.5606 24.3572 32.05 24.3503 33.3822 22.9566C34.4343 21.8977 34.7759 19.486 34.7759 19.486C34.7759 19.486 35.1244 16.6575 35.1244 13.8222V11.1714C35.1244 8.34296 34.7759 5.50768 34.7759 5.50768ZM14.0203 17.0401V7.20885L23.469 12.1416L14.0203 17.0401Z" fill="#465658"/>
</svg>
